<?xml version="1.0" standalone="no"?>
<!DOCTYPE svg PUBLIC "-//W3C//DTD SVG 20010904//EN"
 "http://www.w3.org/TR/2001/REC-SVG-20010904/DTD/svg10.dtd">
<svg version="1.0" xmlns="http://www.w3.org/2000/svg"
 width="2000.000000pt" height="2000.000000pt" viewBox="0 0 2000.000000 2000.000000"
 preserveAspectRatio="xMidYMid meet">
<metadata>
Created by potrace 1.16, written by Peter Selinger 2001-2019
</metadata>
<g transform="translate(0.000000,2000.000000) scale(0.100000,-0.100000)"
fill="#ffffff" stroke="none">
<path d="M4960 14509 l0 -531 488 5 c382 4 546 10 762 28 455 37 1088 32 1450
-12 743 -91 1169 -312 1390 -722 116 -215 166 -481 149 -794 -28 -502 -259
-911 -674 -1191 -166 -112 -438 -217 -638 -247 -26 -4 -46 -9 -44 -11 2 -2 79
-8 173 -13 563 -32 954 -182 1250 -479 248 -249 374 -585 374 -1000 0 -426
-118 -805 -348 -1116 -315 -427 -759 -660 -1471 -771 -261 -41 -512 -57 -886
-57 -311 -1 -430 4 -925 33 -91 5 -364 12 -607 16 l-443 6 0 -1346 0 -1347
5040 0 5040 0 0 5040 0 5040 -5040 0 -5040 0 0 -531z m8520 -8419 l0 -290
-3480 0 -3480 0 0 290 0 290 3480 0 3480 0 0 -290z"/>
<path d="M6710 13524 c-129 -5 -463 -24 -517 -30 l-53 -5 0 -1140 0 -1140 503
4 c532 4 543 5 690 56 319 111 529 393 603 811 53 302 27 710 -58 910 -71 169
-180 299 -314 378 -187 111 -504 168 -854 156z"/>
<path d="M6520 10620 c-195 -4 -361 -8 -367 -9 -10 -1 -13 -249 -13 -1206 l0
-1204 38 -10 c79 -22 181 -40 283 -50 140 -15 601 -16 712 -2 198 26 390 77
502 133 304 154 491 427 567 826 19 101 23 151 23 362 0 216 -3 259 -23 358
-65 323 -205 532 -440 654 -264 138 -494 165 -1282 148z"/>
</g>
</svg>
