<?xml version="1.0" standalone="no"?>
<!DOCTYPE svg PUBLIC "-//W3C//DTD SVG 20010904//EN"
 "http://www.w3.org/TR/2001/REC-SVG-20010904/DTD/svg10.dtd">
<svg version="1.0" xmlns="http://www.w3.org/2000/svg"
 width="2000.000000pt" height="2000.000000pt" viewBox="0 0 2000.000000 2000.000000"
 preserveAspectRatio="xMidYMid meet">
<metadata>
Created by potrace 1.16, written by Peter Selinger 2001-2019
</metadata>
<g transform="translate(0.000000,2000.000000) scale(0.100000,-0.100000)"
fill="#ffffff" stroke="none">
<path d="M10110 11481 l-295 -36 -3 -91 -3 -92 121 -22 120 -22 0 -1069 0
-1068 -32 -6 c-48 -8 -171 -25 -185 -25 -10 0 -13 -27 -13 -100 l0 -100 460 0
460 0 0 99 0 98 -88 12 c-49 6 -100 11 -115 11 l-27 0 0 1189 0 1189 -49 36
c-27 20 -50 35 -52 35 -2 -1 -137 -18 -299 -38z"/>
<path d="M14510 11480 c-162 -21 -296 -39 -297 -39 -2 -1 -3 -41 -3 -90 l0
-89 98 -17 c53 -9 107 -19 120 -22 l22 -5 0 -1069 0 -1069 -22 -5 c-26 -5
-149 -25 -160 -25 -5 0 -8 -45 -8 -100 l0 -100 425 0 425 0 0 99 0 99 -90 13
c-50 7 -94 15 -99 18 -4 3 -11 92 -14 197 l-6 190 143 143 c144 144 144 144
159 120 46 -74 346 -642 342 -649 -2 -4 -38 -13 -80 -19 l-75 -12 0 -100 0
-99 430 0 430 0 0 99 0 100 -47 7 c-27 3 -66 9 -88 13 l-40 7 -283 483 -284
483 154 147 c267 256 227 229 378 254 l130 21 0 98 0 98 -425 0 -425 0 0 -99
0 -98 93 -13 c50 -7 102 -16 115 -19 20 -6 -8 -39 -259 -301 -154 -162 -299
-314 -322 -337 l-42 -43 3 853 2 852 -48 33 c-27 17 -50 31 -53 31 -2 -1 -137
-19 -299 -39z"/>
<path d="M11290 11471 c-121 -39 -193 -143 -193 -277 0 -58 4 -79 28 -122 46
-84 117 -122 231 -122 181 0 294 111 294 289 -1 95 -46 173 -125 214 -43 22
-188 34 -235 18z"/>
<path d="M3020 11280 c-47 -4 -239 -8 -428 -9 l-343 -1 3 -107 3 -108 123 -19
122 -20 0 -967 0 -967 -77 -11 c-43 -6 -102 -13 -130 -17 l-53 -7 0 -97 0 -97
338 -7 c185 -3 454 -9 597 -12 376 -9 559 18 755 113 79 38 109 59 175 127
138 139 198 287 199 496 1 92 -4 129 -21 185 -43 136 -133 239 -268 305 -95
47 -169 67 -279 77 l-80 6 59 17 c89 24 180 77 249 144 110 107 164 229 173
388 16 270 -98 444 -347 530 -149 51 -535 81 -770 58z m434 -229 c143 -56 206
-174 206 -379 -1 -202 -68 -350 -187 -414 -68 -37 -143 -48 -330 -48 l-163 0
0 429 0 430 33 4 c17 3 111 4 207 3 156 -2 181 -5 234 -25z m-18 -1082 c200
-28 297 -115 330 -297 17 -97 17 -167 0 -264 -37 -207 -160 -327 -366 -359
-81 -12 -333 -7 -385 9 l-30 8 -3 452 -2 451 37 4 c84 8 347 6 419 -4z"/>
<path d="M5205 10690 c-148 -21 -316 -75 -466 -151 -164 -83 -160 -74 -99
-197 27 -56 52 -102 55 -102 3 0 47 18 98 39 50 22 133 52 182 67 81 24 106
27 251 28 160 1 161 1 219 -29 97 -50 135 -138 135 -315 l0 -66 -157 -12
c-505 -39 -823 -207 -893 -472 -7 -24 -12 -85 -11 -135 1 -163 44 -270 150
-376 114 -114 262 -167 437 -155 50 3 115 13 145 22 105 32 231 106 320 191
l37 35 3 -92 c4 -88 5 -93 36 -120 23 -21 47 -30 86 -35 77 -10 351 16 440 41
15 5 17 18 17 100 l0 94 -84 0 -85 0 -4 583 c-5 646 -7 668 -71 802 -84 176
-234 249 -533 259 -81 3 -175 1 -208 -4z m375 -1204 l0 -264 -35 -26 c-19 -15
-70 -44 -112 -64 -71 -34 -85 -37 -163 -37 -96 0 -147 20 -194 76 -43 51 -58
98 -63 200 -5 81 -3 102 15 141 64 145 244 233 485 237 l67 1 0 -264z"/>
<path d="M6973 10690 c-170 -19 -339 -96 -433 -197 -106 -112 -142 -227 -123
-381 18 -141 52 -213 147 -308 93 -92 141 -121 378 -228 259 -115 358 -177
392 -245 53 -104 8 -230 -102 -285 -67 -34 -235 -38 -337 -8 -45 14 -108 47
-127 68 -9 11 -30 69 -48 129 -17 61 -33 118 -36 128 -5 16 -18 17 -142 15
l-137 -3 -3 -213 -2 -213 32 -13 c47 -20 287 -82 388 -101 254 -47 522 -24
696 62 185 89 294 258 294 452 0 149 -46 256 -155 360 -79 75 -168 127 -405
232 -254 112 -273 123 -328 172 -55 51 -81 106 -82 170 0 88 41 146 135 189
96 44 319 23 372 -34 12 -13 38 -78 59 -145 l37 -123 134 0 133 0 0 214 0 213
-97 26 c-237 64 -464 88 -640 67z"/>
<path d="M8723 10685 c-39 -8 -111 -29 -159 -49 -192 -78 -318 -196 -408 -381
-65 -132 -92 -230 -107 -390 -30 -328 54 -635 224 -822 131 -143 362 -233 600
-233 222 0 533 104 670 224 l37 33 -41 89 c-23 49 -43 91 -44 93 -2 2 -17 -6
-34 -18 -94 -67 -286 -121 -431 -121 -211 0 -342 81 -430 265 -32 66 -64 199
-73 293 l-4 52 524 0 523 0 12 28 c8 17 12 101 12 237 1 193 -1 216 -22 285
-35 110 -79 187 -148 255 -121 120 -283 176 -503 174 -69 -1 -158 -7 -198 -14z
m249 -218 c87 -37 137 -112 162 -246 16 -83 22 -245 10 -275 -5 -14 -43 -16
-315 -16 l-308 0 5 53 c31 322 91 442 246 493 50 16 150 12 200 -9z"/>
<path d="M11231 10664 c-145 -18 -270 -35 -278 -38 -11 -4 -13 -29 -11 -113
l3 -108 113 -29 112 -29 0 -633 0 -634 -22 -5 c-25 -5 -173 -25 -189 -25 -5 0
-9 -45 -9 -100 l0 -100 455 0 455 0 0 99 0 99 -107 13 -108 14 -5 782 -5 782
-40 30 c-25 19 -51 30 -70 30 -16 -1 -149 -16 -294 -35z"/>
<path d="M12310 10665 c-135 -19 -246 -34 -247 -34 -2 -1 -3 -52 -3 -115 l0
-114 105 -28 105 -28 0 -633 0 -633 -22 -5 c-26 -5 -149 -25 -160 -25 -5 0 -8
-45 -8 -100 l0 -100 425 0 425 0 0 100 c0 55 -3 100 -7 100 -12 0 -135 20
-160 25 l-23 5 0 589 0 589 65 42 c229 149 487 146 553 -8 38 -90 42 -148 42
-693 l0 -526 -52 -7 c-29 -4 -68 -9 -85 -12 l-33 -6 0 -99 0 -99 420 0 420 0
0 99 0 99 -75 11 c-42 6 -84 11 -94 11 -18 0 -19 25 -24 548 -4 448 -8 563
-21 635 -44 238 -125 354 -284 409 -59 20 -85 23 -222 22 -139 0 -164 -3 -245
-28 -144 -43 -338 -144 -384 -200 -7 -9 -16 -16 -20 -16 -3 0 -5 42 -3 94 l3
93 -42 37 c-51 43 -32 43 -349 1z"/>
<path d="M16925 10690 c-176 -22 -324 -88 -426 -189 -112 -112 -152 -237 -130
-399 17 -122 51 -198 122 -276 82 -89 168 -143 371 -235 360 -162 425 -210
444 -327 13 -84 -36 -173 -118 -215 -121 -62 -394 -29 -469 57 -9 11 -24 46
-33 79 -10 33 -26 91 -37 128 l-20 68 -137 -3 -137 -3 -3 -213 -2 -213 32 -13
c46 -19 287 -82 388 -101 201 -38 454 -27 612 25 142 48 278 159 332 273 71
150 61 344 -24 477 -79 123 -208 209 -520 345 -208 91 -263 121 -312 172 -114
117 -83 278 66 345 98 44 319 23 374 -35 13 -14 37 -74 59 -145 l37 -122 133
0 133 0 0 214 0 213 -97 26 c-240 65 -466 88 -638 67z"/>
<path d="M9810 8265 l0 -215 3935 0 3935 0 0 215 0 215 -3935 0 -3935 0 0
-215z"/>
</g>
</svg>
