<?xml version="1.0" standalone="no"?>
<!DOCTYPE svg PUBLIC "-//W3C//DTD SVG 20010904//EN"
 "http://www.w3.org/TR/2001/REC-SVG-20010904/DTD/svg10.dtd">
<svg version="1.0" xmlns="http://www.w3.org/2000/svg"
 width="2000.000000pt" height="2000.000000pt" viewBox="0 0 2000.000000 2000.000000"
 preserveAspectRatio="xMidYMid meet">
<metadata>
Created by potrace 1.16, written by Peter Selinger 2001-2019
</metadata>
<g transform="translate(0.000000,2000.000000) scale(0.100000,-0.100000)"
fill="#000000" stroke="none">
<path d="M4960 14508 l0 -531 463 6 c264 4 550 13 667 22 394 30 497 35 800
35 744 0 1287 -88 1641 -265 240 -121 451 -334 555 -560 127 -279 157 -663 79
-1007 -131 -583 -576 -1008 -1205 -1152 l-105 -25 90 0 c222 -3 559 -60 742
-126 474 -170 792 -498 904 -930 35 -135 49 -253 49 -427 0 -450 -115 -818
-356 -1138 -98 -130 -286 -310 -410 -393 -334 -222 -797 -356 -1419 -409 -193
-17 -867 -17 -1125 0 -415 27 -577 32 -967 32 l-403 0 0 -1340 0 -1340 5040 0
5040 0 0 5040 0 5040 -5040 0 -5040 0 0 -532z m8520 -8413 l0 -295 -3480 0
-3480 0 0 295 0 295 3480 0 3480 0 0 -295z"/>
<path d="M6370 13504 c-113 -7 -211 -16 -217 -19 -10 -3 -13 -238 -13 -1134
l0 -1129 23 -6 c12 -3 211 -6 442 -6 549 0 647 14 846 116 263 135 430 409
491 804 18 116 18 522 -1 615 -39 204 -85 320 -175 438 -119 159 -272 244
-546 303 -103 23 -142 26 -380 29 -164 2 -343 -2 -470 -11z"/>
<path d="M6250 10610 c-58 -4 -106 -8 -107 -9 -2 0 -3 -539 -3 -1196 l0 -1195
28 -11 c176 -69 823 -92 1117 -40 422 75 672 245 832 566 171 342 202 890 72
1278 -110 329 -348 514 -759 589 -105 19 -156 21 -595 23 -264 2 -527 -1 -585
-5z"/>
</g>
</svg>
